<?xml version="1.0" standalone="no"?>
<!DOCTYPE svg PUBLIC "-//W3C//DTD SVG 20010904//EN"
 "http://www.w3.org/TR/2001/REC-SVG-20010904/DTD/svg10.dtd">
<svg version="1.0" xmlns="http://www.w3.org/2000/svg"
 width="76.000000pt" height="76.000000pt" viewBox="0 0 76.000000 76.000000"
 preserveAspectRatio="xMidYMid meet">

<g transform="translate(0.000000,76.000000) scale(0.100000,-0.100000)"
fill="#000000" stroke="none">
<path d="M90 412 l0 -277 115 -58 c63 -31 119 -57 125 -57 5 0 10 26 12 57 l3
58 105 5 105 5 0 80 c0 73 -2 80 -20 80 -18 0 -20 -8 -23 -63 l-3 -63 -82 3
-82 3 -3 191 -2 190 -70 34 c-39 19 -70 37 -70 42 0 4 70 8 155 8 l155 0 0
-86 c0 -83 1 -85 23 -82 21 3 22 7 22 103 l0 100 -232 3 -233 2 0 -278z"/>
<path d="M598 474 l-3 -39 -102 -3 -103 -3 0 -39 0 -40 105 0 105 0 0 -42 0
-43 62 63 63 62 -62 62 -62 61 -3 -39z"/>
</g>
</svg>
